Patient4_TMGait_0pt4_01_left_19_EMG.mot
version=1
nRows=29
nColumns=33
inDegrees=no
endheader
time	1LAddLong	2LGlutMax	3LGlutMed	4LIliopsoas	5LSemiMemb	6LBicFemLong	7LRecFem	8LVastMed	9LVastLat	10LGasMed	11LTibAnt	12lTibPost	13LPeroneusLong	14LSol	15LExtDigLong	16LFlexDigLong	17RAddLong	18RGlutMax	19RGlutMed	20RIliopsoas	21RSemiMemb	22RBicFemLong	23RRecFem	24RVastMed	25RVastLat	26RGasMed	27RTibAnt	28RTibPost	29RPeroneusLong	30RSol	31RExtDigLong	32RFlexDigLong
23.98	0.004272	0.003662	-0.043793	0.000916	-0.005798	-0.031891	0.019531	0.006409	-0.16937	0.062561	0.042877	-0.001068	0.075989	-0.14618	-0.15152	-0.005341	-0.016632	-0.019836	0.39108	-0.049744	-0.11353	0.06424	-0.29831	-0.24368	-0.87311	-0.009766	0.051422	0.005951	0.50995	-0.038605	0.00351	-0.00473
23.981	0.008545	0.02243	-0.067139	0.005035	-0.004578	-0.031586	0.016327	0.001373	-0.17807	0.053711	-0.050964	0.005035	0.055695	-0.1474	-0.039063	0.005341	-0.018921	-0.044403	0.17654	-0.038757	-0.13092	-0.010376	-0.60745	-0.12009	-0.58441	-0.007782	0.074463	0.008392	0.89569	0.088806	0.001221	-0.001984
23.982	0.00885	0.002441	-0.062256	0.001831	-0.011902	-0.050201	0.031128	0.005341	-0.16342	0.019073	-0.14358	-0.003204	0.045471	-0.072327	-0.12009	0.00351	0.014191	-0.003357	-0.71945	0.036926	0.082397	-0.15518	-0.8757	0.12619	0.089264	-0.011139	0.13718	0.005188	0.013733	-0.14847	0.002441	-0.00885
23.983	0.013123	-0.017548	-0.097504	0.002289	-0.04364	-0.044861	0.030365	0.005035	-0.16815	0.022278	-0.07431	-0.001984	0.002747	-0.077362	-0.078278	0.012665	0.036469	0.021362	-0.35919	0.04776	-0.083313	-0.1503	-0.55252	0.47562	0.41977	-0.00885	0.10895	-0.001068	-1.3826	-0.46875	0.000153	-0.004883
23.984	0.019836	-0.012207	-0.099945	0.003204	-0.023956	-0.049591	0.019989	-0.001221	-0.16754	0.01297	0.014801	0.000458	-0.020294	-0.059052	-0.060272	0.00412	0.04425	-0.00946	0.70419	-0.090332	-0.39993	-0.11398	-0.060425	0.3566	0.30518	0.004578	0.20721	-0.003967	0.1976	-0.4039	0.004578	-0.001068
23.985	-0.019989	0.019684	-0.055389	-0.003357	-0.015259	-0.045013	0.027618	0.003815	-0.14938	-0.007019	0.07019	0.001678	-0.007935	-0.037994	-0.013123	0.015869	0.032349	0.077515	1.5747	-0.098114	-0.34729	-0.049896	-0.026855	0.10712	0.11963	-0.000458	0.13336	-0.005341	2.0363	-0.001373	-0.003662	-0.012207
23.986	0.028381	0.000458	-0.046234	-0.007324	-0.014648	-0.04303	0.030365	0.012054	-0.12375	-0.011292	0.000458	0.000153	0.041962	-0.01709	0.084991	0.00885	0.006714	-0.0383	0.79346	-0.068665	0.17425	-0.020142	-0.12177	0.037842	0.11536	0.000305	0.021057	-0.00824	0.89432	0.024109	-0.002136	-0.009308
23.987	0.024109	-0.01358	0.056763	0.000763	-0.006866	-0.03891	0.029602	0.005646	-0.12314	-0.014801	-0.045929	0.000458	0.010223	0.014801	0.12634	0.007782	0.008392	-0.046844	0.35721	0.010986	-0.015564	-0.081482	-0.058594	-0.03891	0.086517	0.001984	0.047913	-0.003815	-1.443	-0.050354	-0.001373	-0.01236
23.988	0.000458	-0.030823	0.11093	0.004272	-0.012512	-0.030212	0.03418	0.002747	-0.112	-0.009766	0.072632	0.002747	0.014038	0.002899	0.024567	0.007477	0.00061	-0.068207	-0.068817	0.11368	-0.1976	-0.14832	0.007019	-0.01236	0.07843	0.005798	0.21515	-0.007629	-1.5811	-0.10193	-0.001678	-0.009766
23.989	0.003357	-0.082245	0.077057	-0.002747	-0.023651	-0.01297	0.029144	0.006409	-0.080261	-0.023804	-0.044403	0.000916	0.021515	-0.00473	-0.090332	0.007019	-0.044861	-0.043335	-0.097656	0.12146	0.032349	-0.091858	-0.045471	0.081329	0.085754	0.002747	-0.14526	-0.007172	-1.774	-0.12222	0.00061	-0.009918
23.99	0.006866	-0.044556	0.068512	-0.01236	-0.020905	-0.023193	0.018768	0.005035	-0.065613	-0.036316	-0.13001	0.005341	0.050964	-0.010223	-0.035095	0.012665	-0.056	0.001068	0.15274	0.057983	0.32257	-0.059814	-0.037994	0.055084	0.088806	-0.002441	-0.21133	-0.010223	0.19714	-0.058899	-0.00061	-0.013428
23.991	-0.002136	-0.023804	0.031433	-0.010223	-0.037231	-0.014191	0.030975	0.008545	-0.052948	-0.045013	-0.13855	0.006714	0.039063	0.012207	-0.012665	0.018616	-0.037384	0.030365	0.11536	0.005646	0.15091	-0.013275	-0.017853	0.045929	0.092926	-0.010376	0.018005	-0.012054	0.62195	0.047913	0.001373	-0.016022
23.992	0.000305	-0.022736	0.005341	0.007477	-0.050659	-0.008087	0.020905	0.003204	-0.046082	-0.009918	-0.032501	0.001373	-0.032349	-0.046844	0.072784	0.00885	-0.027008	0.076141	-0.07309	0.023041	-0.088806	0.00946	-0.036774	0.093536	0.088959	-0.011139	0.044403	-0.007782	0.7933	0.036163	0.002136	-0.006409
23.993	0.003662	-0.034027	-0.009766	0.014496	-0.035706	-0.012054	0.033569	0.003815	-0.038757	0.009308	0.017853	0.006714	-0.066833	-0.065613	0.043182	0.006104	-0.020142	0.021057	-0.048676	-0.024567	-0.1181	0.023041	0.026703	0.025482	0.066833	-0.002136	0.020905	-0.006714	0.17685	0.065918	0.002136	-0.011292
23.994	0.003815	-0.043793	-0.020599	0.007172	-0.019989	-0.023956	0.01297	0.00885	-0.046234	-0.012054	-0.042419	0.00351	0.004883	-0.003357	0.044098	0.006409	0.001068	0.005035	-0.03891	-0.009003	0.00885	0.062256	0.071259	-0.05722	0.050659	-0.005951	0.052643	-0.009308	-0.37643	0.096588	0	-0.011444
23.995	-0.009613	-0.045624	-0.041962	-0.006714	-0.017395	-0.018005	0.045929	0.003204	-0.026093	-0.000458	-0.018005	0.002899	0.013885	-0.019379	-0.023193	0.011749	0.02594	-0.011292	-0.33371	0.004425	0.051422	0.076141	0.13214	-0.09201	0.038605	0.012512	0.015259	-0.003357	-0.092316	-0.11551	-0.006256	-0.002441
23.996	-0.000305	-0.039978	-0.012207	-0.012512	-0.018005	0.022736	0.027313	0.006866	-0.031891	0.007935	-0.019226	0.002136	0.044403	-0.07843	-0.032196	0.012207	0.014496	0.003357	-0.13779	-0.014343	0.19379	0.022888	0.18051	-0.079041	0.002289	0.013885	0.05661	-0.002899	-0.23102	-0.15976	0.002289	-0.002899
23.997	-0.001068	-0.023346	-0.011444	0.013275	-0.029755	0.006866	0.034943	0	-0.009766	0.005188	0.027924	0.001984	0.04837	-0.075989	-0.004883	0.010834	0.027008	0.050354	-0.10788	0.070038	0.26306	-0.09201	0.20386	-0.05127	0.049133	0.014191	0.077972	-0.002289	-0.33661	-0.024872	0.003662	-0.003052
23.998	-0.047302	-0.04715	-0.012207	-0.000916	-0.048218	-0.056	0.024719	0.006256	-0.010223	-0.003357	0.071411	0.004883	0.016937	-0.014343	-0.014496	0.015564	0.015106	0.031281	-0.15274	0.085754	0.15198	-0.18249	0.20035	-0.03418	0.052032	-0.002136	0.11536	0.003815	-0.68878	-0.026703	0.010376	-0.008392
23.999	0.019226	-0.034943	-0.011902	0.014191	-0.052032	-0.05249	0.022278	-0.001221	-0.011444	-0.004425	0.053101	-0.000763	0.008087	0.013123	-0.045166	0.010223	-0.020599	0.0177	-0.10208	0.002441	-0.031128	-0.14954	0.22797	-0.058594	0.022736	-0.003052	0.062256	0.005798	-0.66681	-0.1683	-0.000458	-0.00412
24	0.031738	-0.026245	-0.027466	0.010986	0.007477	-0.033417	0.03891	0.003357	0.008698	-0.01297	-0.014343	-0.00473	0.010376	-0.018463	-0.044098	0.007019	-0.054932	0.010529	0.005646	-0.039215	-0.16632	-0.001526	0.085297	-0.035706	0.03006	-0.003815	-0.031128	-0.004425	0.56595	-0.51453	0	-0.006409
24.001	0.004425	-0.027008	-0.02533	0.004578	0.008087	-0.013733	0.025482	-0.002747	0.011749	-0.015564	-0.054169	0.001984	0.028687	-0.006104	-0.037231	0.012207	-0.033569	0.050964	0.19791	-0.097656	-0.15579	0.075073	-0.14297	-0.17242	-0.021057	-0.010376	0.014954	-0.073853	0.30151	-0.401	-0.000458	-0.009918
24.002	0.00473	-0.034027	-0.020142	0.003357	-0.013885	0.000458	0.02533	-0.001526	0.029907	-0.008545	-0.02533	-0.002136	0.008698	-0.000458	-0.006104	0.005188	-0.007935	0.078583	0.29617	0.011292	-0.050354	0.06546	-0.11124	-0.16312	-0.045929	-0.016327	0.092468	-0.002289	-0.054169	0.1326	0.002899	-0.001526
24.003	0.005188	-0.037384	-0.023193	0.005035	-0.009155	-0.016327	0.029755	-0.00061	0.037537	-0.019684	-0.006409	0.001221	0.004883	-0.018921	0.069275	-0.001984	0.013123	0.11139	0.3035	0.097656	-0.003204	-0.023041	0.1265	-0.13214	-0.11719	-0.017853	0.13596	0.027924	-0.74524	0.26093	0.000763	-0.008392
24.004	0.008545	-0.029449	-0.022583	0.001221	-0.004883	-0.00824	0.00412	0.005035	0.046539	-0.020447	0.038147	0.000916	-0.009766	-0.028229	0.088043	0.013428	0.006409	0.10971	0.036011	0.17364	0.068665	-0.09201	0.33646	-0.034637	-0.048065	-0.021973	0.1532	0.019684	-0.41824	0.20111	0.000153	-0.002136
24.005	0.005798	-0.007172	-0.025787	-0.000916	-0.019836	-0.023956	0.01236	-0.009766	0.041504	-0.024872	0.067749	0.004883	-0.00412	-0.033875	0.067291	0.013123	-0.004272	0.089417	-0.008698	0.041656	0.059967	-0.075073	0.22018	0.14557	0.14465	-0.019379	0.11932	-0.000305	0.53665	0.057831	0.002441	-0.010986
24.006	0.007477	-0.0354	-0.041504	0.006561	-0.029297	-0.036163	0.006561	-0.001068	0.055389	-0.03006	0.074463	0.00412	0.014496	-0.039063	0.00412	0.006866	-0.036469	0.085602	-0.004578	-0.026855	0.026093	-0.05722	0.086365	0.12955	0.22461	-0.012817	0.053101	-0.004272	0.72998	0.046539	0.000153	-0.00412
24.007	0.002747	-0.042114	-0.057983	0.015717	-0.035095	-0.049744	0.004425	0.002594	0.057678	-0.035858	0.035248	0.009308	0.031128	-0.007629	-0.049896	0.009918	-0.022888	0.055389	-0.090637	0.023346	-0.000458	-0.054321	-0.16586	0.089569	0.20355	-0.016937	0.10315	-0.009918	-0.21393	0.052338	-0.000305	-0.010681
24.008	0.009918	-0.020599	-0.11246	0.011292	-0.017242	-0.023193	0.015106	-0.002136	0.057678	-0.041199	-0.007019	0.006866	0.02594	-0.046692	-0.036926	0.010681	-0.003662	-0.006104	-0.38269	0.01236	-0.080719	-0.066376	-0.35797	0.06897	0.16769	-0.009003	0.024261	-0.010529	2.0442	-0.011444	0.001068	-0.003052
